{
    "asset" : {
        "generator" : "Khronos glTF Blender I/O v1.6.16",
        "version" : "2.0"
    },
    "scene" : 0,
    "scenes" : [
        {
            "name" : "Scene",
            "nodes" : [
                0
            ]
        }
    ],
    "nodes" : [
        {
            "mesh" : 0,
            "name" : "TubeObjects",
            "rotation" : [
                0.6931986212730408,
                -0.029054976999759674,
                -0.02824573405086994,
                0.7196066975593567
            ],
            "translation" : [
                0.13685476779937744,
                0.30022895336151123,
                -0.014018052257597446
            ]
        }
    ],
    "materials" : [
        {
            "doubleSided" : true,
            "name" : "Tube",
            "pbrMetallicRoughness" : {
                "metallicFactor" : 0.20000000298023224,
                "roughnessFactor" : 0.20000000298023224
            }
        }
    ],
    "meshes" : [
        {
            "name" : "SolarPanel_Base_Cube.002_SolarPanel_Base_Cube.007",
            "primitives" : [
                {
                    "attributes" : {
                        "POSITION" : 0,
                        "NORMAL" : 1,
                        "TEXCOORD_0" : 2
                    },
                    "indices" : 3,
                    "material" : 0
                }
            ]
        }
    ],
    "accessors" : [
        {
            "bufferView" : 0,
            "componentType" : 5126,
            "count" : 25661,
            "max" : [
                0.5126424431800842,
                0.46399250626564026,
                0.15626487135887146
            ],
            "min" : [
                -0.70952969789505,
                -0.7098049521446228,
                -0.6577532291412354
            ],
            "type" : "VEC3"
        },
        {
            "bufferView" : 1,
            "componentType" : 5126,
            "count" : 25661,
            "type" : "VEC3"
        },
        {
            "bufferView" : 2,
            "componentType" : 5126,
            "count" : 25661,
            "type" : "VEC2"
        },
        {
            "bufferView" : 3,
            "componentType" : 5123,
            "count" : 114561,
            "type" : "SCALAR"
        }
    ],
    "bufferViews" : [
        {
            "buffer" : 0,
            "byteLength" : 307932,
            "byteOffset" : 0
        },
        {
            "buffer" : 0,
            "byteLength" : 307932,
            "byteOffset" : 307932
        },
        {
            "buffer" : 0,
            "byteLength" : 205288,
            "byteOffset" : 615864
        },
        {
            "buffer" : 0,
            "byteLength" : 229122,
            "byteOffset" : 821152
        }
    ],
    "buffers" : [
        {
            "byteLength" : 1050276,
            "uri" : "data:application/octet-stream;base64,"
        }
    ]
}
